<svg width="21" height="21" viewBox="0 0 21 21" fill="none" xmlns="http://www.w3.org/2000/svg">
<path d="M10.085 0.150391C15.5719 0.150391 20.0195 4.59803 20.0195 10.085C20.0195 15.5719 15.5719 20.0195 10.085 20.0195C4.59803 20.0195 0.150391 15.5719 0.150391 10.085C0.150412 4.59804 4.59804 0.150412 10.085 0.150391ZM10.085 1.84961C5.53693 1.84963 1.84963 5.53693 1.84961 10.085C1.84961 14.633 5.53691 18.3203 10.085 18.3203C14.633 18.3203 18.3203 14.633 18.3203 10.085C18.3203 5.53691 14.633 1.84961 10.085 1.84961ZM10.085 9.23535C10.5544 9.23535 10.9345 9.61554 10.9346 10.085V13.7188C10.9346 14.1882 10.5544 14.5693 10.085 14.5693C9.61554 14.5693 9.23535 14.1882 9.23535 13.7188V10.085C9.23537 9.61555 9.61555 9.23537 10.085 9.23535ZM10.0938 5.60059C10.5632 5.60059 10.9443 5.98173 10.9443 6.45117C10.9442 6.92053 10.5631 7.30078 10.0938 7.30078H10.085C9.61559 7.30076 9.23544 6.92052 9.23535 6.45117C9.23535 5.98174 9.61554 5.60061 10.085 5.60059H10.0938Z" fill="#191919"/>
</svg>
