<svg width="20" height="20" viewBox="0 0 20 20" fill="none" xmlns="http://www.w3.org/2000/svg">
<path d="M2.5 1.75C2.91421 1.75 3.25 2.08579 3.25 2.5V15.833C3.25 16.0761 3.34665 16.3095 3.51855 16.4814C3.69046 16.6534 3.92388 16.75 4.16699 16.75H17.5C17.9142 16.75 18.25 17.0858 18.25 17.5C18.25 17.9142 17.9142 18.25 17.5 18.25H4.16699C3.52605 18.25 2.91122 17.9952 2.45801 17.542C2.0048 17.0888 1.75 16.4739 1.75 15.833V2.5C1.75 2.08579 2.08579 1.75 2.5 1.75ZM7.5 3.41699C7.91421 3.41699 8.25 3.75278 8.25 4.16699V6.75H8.33301C9.20735 6.75 9.91682 7.45871 9.91699 8.33301V11.667C9.91682 12.5413 9.20735 13.25 8.33301 13.25H8.25V14.167C8.24982 14.5811 7.91411 14.917 7.5 14.917C7.08589 14.917 6.75018 14.5811 6.75 14.167V13.25H6.66699C5.79265 13.25 5.08318 12.5413 5.08301 11.667V8.33301C5.08318 7.45871 5.79265 6.75 6.66699 6.75H6.75V4.16699C6.75 3.75278 7.08579 3.41699 7.5 3.41699ZM14.167 1.75C14.5811 1.75018 14.917 2.08589 14.917 2.5V3.41699H15C15.8745 3.41699 16.583 4.12555 16.583 5V10C16.583 10.8745 15.8745 11.583 15 11.583H14.917V13.333C14.917 13.7471 14.5811 14.0828 14.167 14.083C13.7528 14.083 13.417 13.7472 13.417 13.333V11.583H13.333C12.4587 11.5828 11.75 10.8743 11.75 10V5C11.75 4.12566 12.4587 3.41717 13.333 3.41699H13.417V2.5C13.417 2.08579 13.7528 1.75 14.167 1.75ZM6.66699 8.25C6.62108 8.25 6.58318 8.28713 6.58301 8.33301V11.667C6.58318 11.7129 6.62108 11.75 6.66699 11.75H8.33301C8.37892 11.75 8.41682 11.7129 8.41699 11.667V8.33301C8.41682 8.28713 8.37892 8.25 8.33301 8.25H6.66699ZM13.333 4.91699C13.2871 4.91717 13.25 4.95408 13.25 5V10C13.25 10.0459 13.2871 10.0828 13.333 10.083H15C15.046 10.083 15.083 10.046 15.083 10V5C15.083 4.95398 15.046 4.91699 15 4.91699H13.333Z" fill="#191919"/>
</svg>
