<svg width="224" height="72" viewBox="0 0 224 72" fill="none" xmlns="http://www.w3.org/2000/svg">
<path d="M214.134 0V0.5H219C221.485 0.5 223.5 2.51472 223.5 5V10.167H224V15.333H223.5V25.667H224V30.833H223.5V41.167H224V46.333H223.5V56.667H224V61.833H223.5V67C223.5 69.4853 221.485 71.5 219 71.5H213.905V72H208.81V71.5H198.619V72H193.523V71.5H183.333V72H178.238V71.5H168.048V72H162.952V71.5H152.762V72H147.667V71.5H137.477V72H132.381V71.5H122.19V72H117.096V71.5H106.904V72H101.81V71.5H91.6191V72H86.5234V71.5H76.333V72H71.2383V71.5H61.0479V72H55.9521V71.5H45.7617V72H40.667V71.5H30.4766V72H25.3809V71.5H15.1904V72H10.0957V71.5H5C2.51472 71.5 0.5 69.4853 0.5 67V61.417H0V55.833H0.5V44.667H0V39.083H0.5V27.917H0V22.333H0.5V11.167H0V5.58301H0.5V0.5H4.86621V0H9.7334V0.5H19.4668V0H24.333V0.5H34.0664V0H38.9336V0.5H48.667V0H53.5332V0.5H63.2666V0H68.1338V0.5H77.8662V0H82.7334V0.5H92.4668V0H97.333V0.5H107.066V0H111.934V0.5H121.667V0H126.533V0.5H136.267V0H141.134V0.5H150.866V0H155.733V0.5H165.467V0H170.333V0.5H180.066V0H184.934V0.5H194.667V0H199.533V0.5H209.267V0H214.134Z" stroke="#EAEAEA" stroke-dasharray="10 5"/>
<path d="M28.626 24.626C29.0165 24.2358 29.6496 24.2358 30.0401 24.626L35.3741 29.959C35.7644 30.3493 35.764 30.9825 35.3741 31.373C34.9836 31.7636 34.3505 31.7636 33.96 31.373L30.3331 27.7461V46.666C30.3331 47.2182 29.8853 47.6659 29.3331 47.666C28.7809 47.6658 28.3331 47.2182 28.3331 46.666V27.7471L24.7071 31.373C24.3166 31.7636 23.6836 31.7636 23.293 31.373C22.9027 30.9825 22.9026 30.3494 23.293 29.959L28.626 24.626ZM42.6671 24.333C43.219 24.3333 43.6669 24.7811 43.6671 25.333V44.252L47.293 40.626C47.6836 40.2357 48.3167 40.2356 48.7071 40.626C49.0975 41.0164 49.0973 41.6495 48.7071 42.04L43.3741 47.373C43.1867 47.5605 42.9321 47.6659 42.6671 47.666C42.4018 47.666 42.1476 47.5606 41.96 47.373L36.626 42.04C36.2358 41.6495 36.2357 41.0164 36.626 40.626C37.0165 40.2358 37.6496 40.2358 38.0401 40.626L41.6671 44.252V25.333C41.6672 24.7809 42.1149 24.333 42.6671 24.333Z" fill="#191919"/>
<path d="M88.9998 27.1248C89.483 27.1248 89.8747 27.5167 89.8748 27.9998V41.8865L92.3807 39.3807C92.7223 39.0391 93.2772 39.0393 93.619 39.3807C93.9607 39.7224 93.9607 40.2773 93.619 40.619L89.619 44.619C89.2773 44.9606 88.7224 44.9607 88.3807 44.619L84.3807 40.619C84.0394 40.2773 84.0392 39.7223 84.3807 39.3807C84.7223 39.0391 85.2772 39.0393 85.619 39.3807L88.1248 41.8865V27.9998C88.125 27.5169 88.5169 27.1251 88.9998 27.1248ZM78.4471 27.3211C78.7907 27.0406 79.2985 27.0606 79.619 27.3807L83.619 31.3807C83.9607 31.7224 83.9607 32.2773 83.619 32.619C83.2773 32.9606 82.7224 32.9607 82.3807 32.619L79.8748 30.1131V43.9998C79.8748 44.4831 79.4831 44.8748 78.9998 44.8748C78.5168 44.8746 78.1248 44.4829 78.1248 43.9998V30.1131L75.619 32.619C75.2773 32.9606 74.7224 32.9607 74.3807 32.619C74.0394 32.2773 74.0392 31.7223 74.3807 31.3807L78.3807 27.3807L78.4471 27.3211Z" fill="#191919"/>
<path d="M121.302 28.8027C121.595 28.5101 122.07 28.5102 122.363 28.8027L125.697 32.1357C125.99 32.4285 125.989 32.9034 125.697 33.1963C125.404 33.4892 124.929 33.4892 124.636 33.1963L122.583 31.1426V42.666C122.583 43.0802 122.247 43.416 121.833 43.416C121.419 43.4158 121.083 43.0801 121.083 42.666V31.1436L119.03 33.1963C118.737 33.4892 118.262 33.4892 117.969 33.1963C117.677 32.9034 117.677 32.4285 117.969 32.1357L121.302 28.8027ZM130.167 28.583C130.581 28.5832 130.917 28.9191 130.917 29.333V40.8555L132.969 38.8027C133.262 38.51 133.737 38.5101 134.03 38.8027C134.323 39.0956 134.323 39.5704 134.03 39.8633L130.697 43.1963C130.404 43.4892 129.929 43.4892 129.636 43.1963L126.302 39.8633C126.01 39.5704 126.01 39.0955 126.302 38.8027C126.595 38.5101 127.07 38.5102 127.363 38.8027L129.417 40.8555V29.333C129.417 28.919 129.753 28.583 130.167 28.583Z" fill="#191919"/>
<path d="M160.281 30.082C160.553 29.9027 160.923 29.9327 161.162 30.1718L163.828 32.8388C164.101 33.1122 164.102 33.5558 163.828 33.8291C163.555 34.102 163.111 34.102 162.838 33.8291L161.366 32.3564V41.334C161.366 41.72 161.053 42.0328 160.667 42.0332C160.281 42.0332 159.967 41.7203 159.967 41.334V32.3574L158.495 33.8291C158.222 34.1021 157.778 34.1019 157.505 33.8291C157.232 33.5558 157.232 33.1122 157.505 32.8388L160.172 30.1718L160.281 30.082ZM167.333 29.9668C167.72 29.967 168.033 30.2805 168.033 30.667V39.6435L169.505 38.1718C169.778 37.8985 170.222 37.8985 170.495 38.1718C170.768 38.4452 170.769 38.8888 170.495 39.1621L167.828 41.8291C167.555 42.102 167.111 42.102 166.838 41.8291L164.172 39.1621C163.899 38.8887 163.899 38.4452 164.172 38.1718C164.445 37.8987 164.889 37.8986 165.162 38.1718L166.634 39.6435V30.667C166.634 30.2805 166.947 29.9669 167.333 29.9668Z" fill="#191919"/>
<path d="M195.225 31.582C195.419 31.4541 195.683 31.4757 195.854 31.6465L197.854 33.6465C198.049 33.8417 198.049 34.1583 197.854 34.3535C197.659 34.5487 197.342 34.5486 197.147 34.3535L196 33.207V40C196 40.276 195.776 40.4998 195.5 40.5C195.224 40.5 195 40.2761 195 40V33.207L193.854 34.3535C193.659 34.5487 193.342 34.5486 193.147 34.3535C192.952 34.1582 192.952 33.8417 193.147 33.6465L195.147 31.6465L195.225 31.582ZM200.5 31.5C200.776 31.5002 201 31.724 201 32V38.793L202.147 37.6465C202.342 37.4515 202.659 37.4513 202.854 37.6465C203.049 37.8417 203.049 38.1583 202.854 38.3535L200.854 40.3535C200.659 40.5487 200.342 40.5486 200.147 40.3535L198.147 38.3535C197.952 38.1582 197.952 37.8417 198.147 37.6465C198.342 37.4515 198.659 37.4513 198.854 37.6465L200 38.793V32C200 31.7239 200.224 31.5 200.5 31.5Z" fill="#191919"/>
</svg>
