<svg width="224" height="72" viewBox="0 0 224 72" fill="none" xmlns="http://www.w3.org/2000/svg">
<path d="M214.134 0V0.5H219C221.485 0.5 223.5 2.51472 223.5 5V10.167H224V15.333H223.5V25.667H224V30.833H223.5V41.167H224V46.333H223.5V56.667H224V61.833H223.5V67C223.5 69.4853 221.485 71.5 219 71.5H213.905V72H208.81V71.5H198.619V72H193.523V71.5H183.333V72H178.238V71.5H168.048V72H162.952V71.5H152.762V72H147.667V71.5H137.477V72H132.381V71.5H122.19V72H117.096V71.5H106.904V72H101.81V71.5H91.6191V72H86.5234V71.5H76.333V72H71.2383V71.5H61.0479V72H55.9521V71.5H45.7617V72H40.667V71.5H30.4766V72H25.3809V71.5H15.1904V72H10.0957V71.5H5C2.51472 71.5 0.5 69.4853 0.5 67V61.417H0V55.833H0.5V44.667H0V39.083H0.5V27.917H0V22.333H0.5V11.167H0V5.58301H0.5V0.5H4.86621V0H9.7334V0.5H19.4668V0H24.333V0.5H34.0664V0H38.9336V0.5H48.667V0H53.5332V0.5H63.2666V0H68.1338V0.5H77.8662V0H82.7334V0.5H92.4668V0H97.333V0.5H107.066V0H111.934V0.5H121.667V0H126.533V0.5H136.267V0H141.134V0.5H150.866V0H155.733V0.5H165.467V0H170.333V0.5H180.066V0H184.934V0.5H194.667V0H199.533V0.5H209.267V0H214.134Z" stroke="#EAEAEA" stroke-dasharray="10 5"/>
<path d="M33.333 27C33.8852 27 34.3328 27.4479 34.333 28C34.3328 28.5521 33.8852 29 33.333 29H26.333V45.666H43V38.666C43.0004 38.1141 43.4481 37.6662 44 37.666C44.5519 37.6662 44.9996 38.1141 45 38.666V45.666C45 46.7705 44.1044 47.6658 43 47.666H26.333C25.2286 47.6658 24.333 46.7705 24.333 45.666V29C24.3332 27.8957 25.2287 27.0002 26.333 27H33.333ZM46.666 24.333C46.931 24.333 47.1856 24.4388 47.373 24.626C47.5605 24.8134 47.6659 25.0679 47.666 25.333V33.333C47.666 33.8853 47.2183 34.333 46.666 34.333C46.114 34.3327 45.666 33.8851 45.666 33.333V27.7471L32.707 40.707C32.3166 41.0974 31.6835 41.0972 31.293 40.707C30.9028 40.3165 30.9026 39.6834 31.293 39.293L44.252 26.333H38.666C38.114 26.3327 37.666 25.8851 37.666 25.333C37.6662 24.7811 38.1141 24.3334 38.666 24.333H46.666Z" fill="#191919"/>
<path d="M82 29.125C82.4832 29.125 82.875 29.5168 82.875 30C82.875 30.4832 82.4832 30.875 82 30.875H77C76.931 30.875 76.875 30.931 76.875 31V43C76.875 43.069 76.931 43.125 77 43.125H89C89.069 43.125 89.125 43.069 89.125 43V38C89.125 37.5168 89.5168 37.125 90 37.125C90.4832 37.125 90.875 37.5168 90.875 38V43C90.875 44.0355 90.0355 44.875 89 44.875H77C75.9645 44.875 75.125 44.0355 75.125 43V31C75.125 29.9645 75.9645 29.125 77 29.125H82ZM92 27.125C92.2321 27.125 92.455 27.2168 92.6191 27.3809C92.7832 27.545 92.875 27.7679 92.875 28V34C92.875 34.4832 92.4832 34.875 92 34.875C91.5168 34.875 91.125 34.4832 91.125 34V30.1133L81.6191 39.6191C81.2774 39.9608 80.7226 39.9608 80.3809 39.6191C80.0392 39.2774 80.0392 38.7226 80.3809 38.3809L89.8867 28.875H86C85.5168 28.875 85.125 28.4832 85.125 28C85.125 27.5168 85.5168 27.125 86 27.125H92Z" fill="#191919"/>
<path d="M124.333 30.25C124.747 30.25 125.083 30.5859 125.083 31C125.083 31.4141 124.747 31.75 124.333 31.75H120.333C120.195 31.7502 120.083 31.8622 120.083 32V41.666C120.083 41.804 120.195 41.9158 120.333 41.916H130C130.138 41.9158 130.25 41.804 130.25 41.666V37.666C130.25 37.2522 130.586 36.9162 131 36.916C131.414 36.9162 131.75 37.2522 131.75 37.666V41.666C131.75 42.6324 130.966 43.4158 130 43.416H120.333C119.367 43.4158 118.583 42.6324 118.583 41.666V32C118.583 31.0338 119.367 30.2502 120.333 30.25H124.333ZM132.666 28.583C132.865 28.583 133.056 28.6624 133.196 28.8027C133.337 28.9433 133.416 29.1342 133.416 29.333V34.333C133.416 34.7472 133.08 35.083 132.666 35.083C132.252 35.0827 131.916 34.747 131.916 34.333V31.1436L124.03 39.0303C123.737 39.3231 123.263 39.3228 122.97 39.0303C122.677 38.7374 122.677 38.2625 122.97 37.9697L130.855 30.083H127.666C127.252 30.0827 126.916 29.747 126.916 29.333C126.916 28.9192 127.252 28.5834 127.666 28.583H132.666Z" fill="#191919"/>
<path d="M162.667 31.3008C163.053 31.301 163.367 31.6137 163.367 32C163.367 32.3863 163.053 32.7 162.667 32.7002H159.667C159.501 32.7002 159.367 32.8345 159.367 33V40.334C159.368 40.4994 159.502 40.6338 159.667 40.6338H167C167.165 40.6336 167.3 40.4993 167.301 40.334V37.334C167.301 36.9475 167.614 36.634 168 36.6338C168.386 36.634 168.7 36.9475 168.7 37.334V40.334C168.7 41.2725 167.939 42.033 167 42.0332H159.667C158.728 42.0332 157.967 41.2726 157.967 40.334V33C157.967 32.0613 158.728 31.3008 159.667 31.3008H162.667ZM169.334 29.9668C169.519 29.967 169.698 30.0408 169.829 30.1719C169.96 30.3031 170.033 30.4816 170.033 30.667V34.667C170.033 35.0532 169.72 35.3668 169.334 35.3672C168.947 35.3672 168.634 35.0534 168.634 34.667V32.3564L162.495 38.4951C162.222 38.7684 161.778 38.7682 161.505 38.4951C161.232 38.2217 161.232 37.7781 161.505 37.5049L167.644 31.3672H165.334C164.947 31.3672 164.634 31.0534 164.634 30.667C164.634 30.2804 164.947 29.9668 165.334 29.9668H169.334Z" fill="#191919"/>
<path d="M197 32.5C197.276 32.5 197.5 32.7239 197.5 33C197.5 33.2761 197.276 33.5 197 33.5H195C194.724 33.5 194.5 33.7239 194.5 34V39C194.5 39.2761 194.724 39.5 195 39.5H200C200.276 39.5 200.5 39.2761 200.5 39V37C200.5 36.7239 200.724 36.5 201 36.5C201.276 36.5 201.5 36.7239 201.5 37V39C201.5 39.8284 200.828 40.5 200 40.5H195C194.172 40.5 193.5 39.8284 193.5 39V34C193.5 33.1716 194.172 32.5 195 32.5H197ZM202 31.5C202.133 31.5 202.26 31.5527 202.354 31.6465C202.447 31.7403 202.5 31.8674 202.5 32V35C202.5 35.2761 202.276 35.5 202 35.5C201.724 35.5 201.5 35.2761 201.5 35V33.207L196.854 37.8535C196.658 38.0488 196.342 38.0488 196.146 37.8535C195.951 37.6583 195.951 37.3417 196.146 37.1465L200.793 32.5H199C198.724 32.5 198.5 32.2761 198.5 32C198.5 31.7239 198.724 31.5 199 31.5H202Z" fill="#191919"/>
</svg>
