<svg width="224" height="72" viewBox="0 0 224 72" fill="none" xmlns="http://www.w3.org/2000/svg">
<path d="M214.134 0V0.5H219C221.485 0.5 223.5 2.51472 223.5 5V10.167H224V15.333H223.5V25.667H224V30.833H223.5V41.167H224V46.333H223.5V56.667H224V61.833H223.5V67C223.5 69.4853 221.485 71.5 219 71.5H213.905V72H208.81V71.5H198.619V72H193.523V71.5H183.333V72H178.238V71.5H168.048V72H162.952V71.5H152.762V72H147.667V71.5H137.477V72H132.381V71.5H122.19V72H117.096V71.5H106.904V72H101.81V71.5H91.6191V72H86.5234V71.5H76.333V72H71.2383V71.5H61.0479V72H55.9521V71.5H45.7617V72H40.667V71.5H30.4766V72H25.3809V71.5H15.1904V72H10.0957V71.5H5C2.51472 71.5 0.5 69.4853 0.5 67V61.417H0V55.833H0.5V44.667H0V39.083H0.5V27.917H0V22.333H0.5V11.167H0V5.58301H0.5V0.5H4.86621V0H9.7334V0.5H19.4668V0H24.333V0.5H34.0664V0H38.9336V0.5H48.667V0H53.5332V0.5H63.2666V0H68.1338V0.5H77.8662V0H82.7334V0.5H92.4668V0H97.333V0.5H107.066V0H111.934V0.5H121.667V0H126.533V0.5H136.267V0H141.134V0.5H150.866V0H155.733V0.5H165.467V0H170.333V0.5H180.066V0H184.934V0.5H194.667V0H199.533V0.5H209.267V0H214.134Z" stroke="#EAEAEA" stroke-dasharray="10 5"/>
<path d="M21.9593 21.9593C22.3498 21.5689 22.9829 21.5689 23.3734 21.9593L50.0404 48.6263C50.4306 49.0169 50.4308 49.65 50.0404 50.0404C49.65 50.4308 49.0169 50.4306 48.6263 50.0404L44.4554 45.8695C42.1881 47.8304 39.231 48.9994 35.9994 48.9994H35.9955C32.383 48.9856 28.9151 47.5766 26.3177 45.0658C26.3137 45.0619 26.31 45.057 26.306 45.0531L24.9994 43.7464V47.9994C24.9994 48.5517 24.5517 48.9994 23.9994 48.9994C23.4473 48.9991 22.9994 48.5515 22.9994 47.9994V41.3334C22.9994 40.7813 23.4474 40.3336 23.9994 40.3334H30.6664C31.2186 40.3334 31.6663 40.7811 31.6664 41.3334C31.6662 41.8855 31.2186 42.3334 30.6664 42.3334H26.4144L27.7084 43.6273L28.1342 44.0199C30.306 45.9256 33.099 46.9869 36.0013 46.9984C38.6879 46.998 41.1383 46.0465 43.0355 44.4496L27.5482 28.9623C25.951 30.8598 24.9995 33.3123 24.9994 35.9994C24.9994 36.5517 24.5517 36.9994 23.9994 36.9994C23.4473 36.9991 22.9994 36.5515 22.9994 35.9994C22.9995 32.7679 24.1684 29.8106 26.1293 27.5433L21.9593 23.3734C21.569 22.9829 21.5689 22.3498 21.9593 21.9593ZM47.9994 34.9994C48.5515 34.9994 48.9992 35.4473 48.9994 35.9994C48.9994 37.4389 48.7695 38.843 48.3187 40.1517C48.1389 40.6738 47.5694 40.9516 47.0472 40.7718C46.5252 40.5919 46.2473 40.0225 46.4271 39.5003C46.8029 38.4093 46.9994 37.2262 46.9994 35.9994C46.9996 35.4474 47.4473 34.9995 47.9994 34.9994ZM36.0033 22.9994C39.6159 23.013 43.0836 24.4231 45.681 26.9339C45.685 26.9378 45.6898 26.9417 45.6937 26.9457L46.9994 28.2513V23.9994C46.9996 23.4474 47.4475 22.9996 47.9994 22.9994C48.5515 22.9994 48.9992 23.4473 48.9994 23.9994V30.6664C48.9994 31.2186 48.5517 31.6664 47.9994 31.6664H41.3334C40.7812 31.6663 40.3334 31.2186 40.3334 30.6664C40.3334 30.1142 40.7812 29.6664 41.3334 29.6664H45.5853L44.2914 28.3724L43.8656 27.9798C41.6933 26.0736 38.8995 25.0104 35.9965 24.9994C34.7707 24.9997 33.5886 25.1961 32.4984 25.5716C31.9764 25.7513 31.4069 25.4744 31.2269 24.9525C31.0472 24.4305 31.3251 23.861 31.847 23.681C33.1558 23.2302 34.5598 22.9994 35.9994 22.9994H36.0033Z" fill="#191919"/>
<path d="M73.3807 25.3807C73.7223 25.0391 74.2772 25.0394 74.619 25.3807L94.619 45.3807C94.9607 45.7224 94.9607 46.2773 94.619 46.619C94.2773 46.9607 93.7224 46.9607 93.3807 46.619L90.3338 43.5721C88.6231 45.0161 86.4122 45.8748 83.9998 45.8748H83.9969C81.2552 45.8644 78.6224 44.7941 76.6512 42.8885L75.8748 42.1122V44.9998C75.8748 45.4831 75.4831 45.8748 74.9998 45.8748C74.5168 45.8746 74.1248 45.483 74.1248 44.9998V39.9998C74.1251 39.5169 74.5169 39.1251 74.9998 39.1248H79.9998C80.483 39.1248 80.8746 39.5168 80.8748 39.9998C80.8748 40.4831 80.4831 40.8748 79.9998 40.8748H77.1121L77.868 41.6307L78.1834 41.9207C79.7894 43.3299 81.8547 44.1151 84.0008 44.1239C85.9361 44.1236 87.7049 43.4554 89.0907 42.3289L77.6698 30.908C76.5432 32.294 75.8749 34.0643 75.8748 35.9998C75.8748 36.483 75.4831 36.8748 74.9998 36.8748C74.5168 36.8746 74.1249 36.4829 74.1248 35.9998C74.1249 33.5876 74.9827 31.3755 76.4266 29.6649L73.3807 26.619C73.0394 26.2772 73.0391 25.7223 73.3807 25.3807ZM92.9998 35.1248C93.4829 35.125 93.8746 35.5169 93.8748 35.9998C93.8748 37.0929 93.7 38.1599 93.3573 39.1551C93.1998 39.6118 92.7017 39.8543 92.245 39.6971C91.7884 39.5395 91.5447 39.0415 91.702 38.5848C91.9791 37.7802 92.1248 36.9067 92.1248 35.9998C92.1251 35.5169 92.5169 35.1251 92.9998 35.1248ZM84.0028 26.1248C86.5731 26.1345 89.0471 27.0759 90.9705 28.7635L91.3475 29.1112L91.3582 29.1209L92.1248 29.8875V26.9998C92.1251 26.5169 92.5169 26.1251 92.9998 26.1248C93.4829 26.1249 93.8746 26.5168 93.8748 26.9998V31.9998C93.8748 32.483 93.483 32.8748 92.9998 32.8748H87.9998C87.5168 32.8746 87.1248 32.483 87.1248 31.9998C87.1251 31.5169 87.5169 31.1251 87.9998 31.1248H90.8875L90.1317 30.369L89.8163 30.0789C88.21 28.6697 86.1443 27.8833 83.9979 27.8748C83.0919 27.8751 82.2189 28.0198 81.4149 28.2967C80.958 28.4539 80.4599 28.2115 80.3026 27.7547C80.1456 27.2981 80.3881 26.7999 80.8446 26.6424C81.8397 26.2996 82.9069 26.1249 83.9998 26.1248H84.0028Z" fill="#191919"/>
<g clip-path="url(#clip0_1_1357)">
<path d="M117.136 27.1361C117.429 26.8433 117.904 26.8434 118.197 27.1361L121.222 30.1615C121.226 30.1651 121.23 30.1685 121.234 30.1722C121.236 30.1746 121.238 30.1776 121.241 30.18L134.864 43.8031C135.156 44.096 135.156 44.5709 134.864 44.8636C134.571 45.1564 134.096 45.1562 133.803 44.8636L131.278 42.3382C129.85 43.5374 128.008 44.2494 125.999 44.2494H125.996C123.706 44.2406 121.508 43.3469 119.862 41.7552L119.249 41.1429V43.4994C119.249 43.9136 118.914 44.2494 118.499 44.2494C118.085 44.2491 117.749 43.9134 117.749 43.4994V39.3334C117.749 38.9194 118.085 38.5836 118.499 38.5834H122.666C123.081 38.5834 123.416 38.9192 123.416 39.3334C123.416 39.7474 123.08 40.0834 122.666 40.0834H120.311L120.905 40.6771L121.166 40.9183C122.501 42.0893 124.217 42.7411 126 42.7484C127.6 42.7483 129.063 42.199 130.211 41.2718L120.727 31.7875C119.8 32.9362 119.249 34.3995 119.249 35.9994C119.249 36.4136 118.914 36.7494 118.499 36.7494C118.085 36.7491 117.749 36.4134 117.749 35.9994C117.749 33.9908 118.461 32.1483 119.66 30.7211L117.136 28.1966C116.843 27.9037 116.843 27.4289 117.136 27.1361ZM133.499 35.2494C133.913 35.2494 134.249 35.5854 134.249 35.9994C134.249 36.9125 134.103 37.8045 133.817 38.6361C133.682 39.0274 133.255 39.2357 132.864 39.1009C132.472 38.966 132.264 38.5384 132.399 38.1468C132.629 37.4786 132.749 36.7528 132.749 35.9994C132.75 35.5855 133.085 35.2495 133.499 35.2494ZM126.002 27.7494C128.292 27.758 130.49 28.652 132.137 30.2435L132.147 30.2523L132.749 30.8549V28.4994C132.75 28.0855 133.086 27.7496 133.499 27.7494C133.913 27.7494 134.249 28.0854 134.249 28.4994V32.6664C134.249 33.0806 133.914 33.4164 133.499 33.4164H129.333C128.919 33.4163 128.583 33.0805 128.583 32.6664C128.583 32.2523 128.919 31.9165 129.333 31.9164H131.689L131.095 31.3226L130.833 31.0814C129.498 29.9099 127.781 29.2562 125.997 29.2494C125.245 29.2496 124.52 29.371 123.852 29.6009C123.461 29.7355 123.034 29.5273 122.899 29.1361C122.764 28.7445 122.972 28.3169 123.364 28.182C124.195 27.8956 125.086 27.7494 125.999 27.7494H126.002Z" fill="#191919"/>
</g>
<g clip-path="url(#clip1_1_1357)">
<path d="M156.838 28.8384C157.112 28.5651 157.555 28.5651 157.829 28.8384L171.162 42.1715C171.435 42.4448 171.435 42.8884 171.162 43.1617C170.888 43.435 170.445 43.4348 170.171 43.1617L168.214 41.2047C167.065 42.1431 165.598 42.6997 164.001 42.6998H163.998C162.14 42.6928 160.356 41.9685 159.02 40.6773L159.012 40.6685L158.7 40.356V42.0006C158.699 42.3867 158.387 42.6995 158.001 42.6998C157.614 42.6998 157.301 42.3869 157.3 42.0006V38.6666C157.301 38.2801 157.614 37.9674 158.001 37.9674H161.334C161.72 37.9675 162.034 38.2802 162.034 38.6666C162.034 39.053 161.72 39.3667 161.334 39.3668H159.69L159.994 39.6705L160.2 39.8599C161.249 40.7808 162.599 41.2938 164.002 41.2994C165.217 41.2991 166.332 40.8952 167.219 40.2095L159.791 32.7808C159.105 33.6688 158.7 34.7843 158.7 36.0006C158.699 36.3867 158.387 36.6995 158.001 36.6998C157.614 36.6998 157.301 36.3869 157.3 36.0006C157.3 34.4026 157.856 32.934 158.795 31.7847L156.838 29.8287C156.565 29.5553 156.565 29.1118 156.838 28.8384ZM170.001 35.3004C170.387 35.3007 170.7 35.6142 170.7 36.0006C170.7 36.7414 170.581 37.4652 170.348 38.1412C170.222 38.5065 169.824 38.7015 169.459 38.5758C169.093 38.4498 168.899 38.0506 169.025 37.6851C169.205 37.1616 169.3 36.5924 169.3 36.0006C169.3 35.614 169.614 35.3004 170.001 35.3004ZM164.003 29.3004C165.744 29.307 167.421 29.9447 168.724 31.0884L168.98 31.3238L168.989 31.3316L169.3 31.6431V30.0006C169.3 29.614 169.614 29.3004 170.001 29.3004C170.387 29.3007 170.7 29.6141 170.7 30.0006V33.3336C170.7 33.7199 170.387 34.0334 170.001 34.0338H166.667C166.28 34.0336 165.967 33.72 165.967 33.3336C165.967 32.9471 166.28 32.6335 166.667 32.6334H168.31L168.007 32.3306L167.801 32.1402C166.752 31.2191 165.401 30.7054 163.999 30.6998C163.407 30.6999 162.838 30.795 162.315 30.9752C161.95 31.101 161.551 30.9068 161.425 30.5416C161.299 30.176 161.493 29.7778 161.859 29.6519C162.535 29.419 163.259 29.3004 164.001 29.3004H164.003Z" fill="#191919"/>
</g>
<g clip-path="url(#clip2_1_1357)">
<path d="M192.646 30.6464C192.842 30.4512 193.158 30.4512 193.353 30.6464L203.353 40.6464C203.549 40.8417 203.549 41.1582 203.353 41.3535C203.158 41.5487 202.842 41.5487 202.646 41.3535L201.163 39.8701C200.303 40.5792 199.201 41 198 41H197.998C196.611 40.9947 195.279 40.4533 194.282 39.4892L194 39.207V40.5C194 40.7761 193.776 41 193.5 41C193.224 40.9999 193 40.7761 193 40.5V38C193 37.7238 193.224 37.5 193.5 37.5H196C196.276 37.5 196.5 37.7238 196.5 38C196.5 38.2761 196.276 38.5 196 38.5H194.707L194.977 38.7705L195.133 38.914C195.924 39.6087 196.943 39.9948 198.001 39.999C198.929 39.9988 199.777 39.6863 200.451 39.1582L194.841 33.5478C194.312 34.2217 194 35.0718 194 36C194 36.2761 193.776 36.5 193.5 36.5C193.224 36.4999 193 36.2761 193 36C193 34.7991 193.42 33.6961 194.129 32.8359L192.646 31.3535C192.451 31.1582 192.451 30.8417 192.646 30.6464ZM202.5 35.5C202.776 35.5 203 35.7239 203 36C203 36.5531 202.911 37.0932 202.737 37.5976C202.647 37.8585 202.363 37.9977 202.102 37.9082C201.841 37.8182 201.702 37.5334 201.792 37.2724C201.928 36.8769 202 36.4467 202 36C202 35.7238 202.224 35.5 202.5 35.5ZM198.002 31C199.302 31.0049 200.553 31.4811 201.526 32.3349L201.718 32.5107L202 32.7929V31.5C202 31.2238 202.224 31 202.5 31C202.776 31 203 31.2238 203 31.5V34C203 34.2761 202.776 34.4999 202.5 34.5H200C199.724 34.4999 199.5 34.2761 199.5 34C199.5 33.7238 199.724 33.5 200 33.5H201.293L201.022 33.2294L200.867 33.0859C200.075 32.3912 199.057 32.0042 197.999 32C197.552 32.0001 197.123 32.0718 196.727 32.208C196.466 32.2977 196.182 32.1584 196.092 31.8974C196.002 31.6365 196.141 31.3525 196.402 31.2626C196.907 31.0889 197.447 31 198 31H198.002Z" fill="#191919"/>
</g>
<defs>
<clipPath id="clip0_1_1357">
<rect width="20" height="20" fill="white" transform="translate(116 26)"/>
</clipPath>
<clipPath id="clip1_1_1357">
<rect width="16" height="16" fill="white" transform="translate(156 28)"/>
</clipPath>
<clipPath id="clip2_1_1357">
<rect width="12" height="12" fill="white" transform="translate(192 30)"/>
</clipPath>
</defs>
</svg>
