<svg width="224" height="72" viewBox="0 0 224 72" fill="none" xmlns="http://www.w3.org/2000/svg">
<path d="M214.134 0V0.5H219C221.485 0.5 223.5 2.51472 223.5 5V10.167H224V15.333H223.5V25.667H224V30.833H223.5V41.167H224V46.333H223.5V56.667H224V61.833H223.5V67C223.5 69.4853 221.485 71.5 219 71.5H213.905V72H208.81V71.5H198.619V72H193.523V71.5H183.333V72H178.238V71.5H168.048V72H162.952V71.5H152.762V72H147.667V71.5H137.477V72H132.381V71.5H122.19V72H117.096V71.5H106.904V72H101.81V71.5H91.6191V72H86.5234V71.5H76.333V72H71.2383V71.5H61.0479V72H55.9521V71.5H45.7617V72H40.667V71.5H30.4766V72H25.3809V71.5H15.1904V72H10.0957V71.5H5C2.51472 71.5 0.5 69.4853 0.5 67V61.417H0V55.833H0.5V44.667H0V39.083H0.5V27.917H0V22.333H0.5V11.167H0V5.58301H0.5V0.5H4.86621V0H9.7334V0.5H19.4668V0H24.333V0.5H34.0664V0H38.9336V0.5H48.667V0H53.5332V0.5H63.2666V0H68.1338V0.5H77.8662V0H82.7334V0.5H92.4668V0H97.333V0.5H107.066V0H111.934V0.5H121.667V0H126.533V0.5H136.267V0H141.134V0.5H150.866V0H155.733V0.5H165.467V0H170.333V0.5H180.066V0H184.934V0.5H194.667V0H199.533V0.5H209.267V0H214.134Z" stroke="#EAEAEA" stroke-dasharray="10 5"/>
<path d="M45.333 23C47.3581 23 49 24.6419 49 26.667V45.333C49 47.3581 47.3581 49 45.333 49H26.667C24.6419 49 23 47.3581 23 45.333V26.667C23 24.6419 24.6419 23 26.667 23H45.333ZM26.667 25C25.7465 25 25 25.7465 25 26.667V45.333C25 46.2535 25.7465 47 26.667 47H45.333C46.2535 47 47 46.2535 47 45.333V26.667C47 25.7465 46.2535 25 45.333 25H26.667ZM35.3691 29.8906C35.7619 29.5705 36.341 29.5939 36.707 29.96L42.04 35.293C42.4306 35.6835 42.4306 36.3165 42.04 36.707C41.6495 37.0974 41.0164 37.0975 40.626 36.707L37 33.0811V41.333C37 41.8853 36.5523 42.333 36 42.333C35.4477 42.333 35 41.8853 35 41.333V33.0811L31.374 36.707C30.9836 37.0975 30.3505 37.0974 29.96 36.707C29.5694 36.3165 29.5694 35.6835 29.96 35.293L35.293 29.96L35.3691 29.8906Z" fill="#191919"/>
<path d="M91 26.125C92.5878 26.125 93.875 27.4122 93.875 29V43C93.875 44.5878 92.5878 45.875 91 45.875H77C75.4122 45.875 74.125 44.5878 74.125 43V29C74.125 27.4122 75.4122 26.125 77 26.125H91ZM77 27.875C76.3787 27.875 75.875 28.3787 75.875 29V43C75.875 43.6213 76.3787 44.125 77 44.125H91C91.6213 44.125 92.125 43.6213 92.125 43V29C92.125 28.3787 91.6213 27.875 91 27.875H77ZM83.3809 31.3809C83.7226 31.0392 84.2774 31.0392 84.6191 31.3809L88.6191 35.3809C88.9608 35.7226 88.9608 36.2774 88.6191 36.6191C88.2774 36.9608 87.7226 36.9608 87.3809 36.6191L84.875 34.1133V40C84.875 40.4832 84.4832 40.875 84 40.875C83.5168 40.875 83.125 40.4832 83.125 40V34.1133L80.6191 36.6191C80.2774 36.9608 79.7226 36.9608 79.3809 36.6191C79.0392 36.2774 79.0392 35.7226 79.3809 35.3809L83.3809 31.3809Z" fill="#191919"/>
<path d="M131.833 27.75C133.168 27.75 134.25 28.8323 134.25 30.167V41.833C134.25 43.1677 133.168 44.25 131.833 44.25H120.167C118.832 44.25 117.75 43.1677 117.75 41.833V30.167C117.75 28.8323 118.832 27.75 120.167 27.75H131.833ZM120.167 29.25C119.661 29.25 119.25 29.6607 119.25 30.167V41.833C119.25 42.3393 119.661 42.75 120.167 42.75H131.833C132.339 42.75 132.75 42.3393 132.75 41.833V30.167C132.75 29.6607 132.339 29.25 131.833 29.25H120.167ZM126 31.917C126.199 31.917 126.39 31.9961 126.53 32.1367L129.863 35.4697C130.156 35.7626 130.156 36.2374 129.863 36.5303C129.57 36.823 129.096 36.8231 128.803 36.5303L126.75 34.4775V39.333C126.75 39.7472 126.414 40.083 126 40.083C125.586 40.083 125.25 39.7472 125.25 39.333V34.4775L123.197 36.5303C122.904 36.8231 122.43 36.823 122.137 36.5303C121.844 36.2374 121.844 35.7626 122.137 35.4697L125.47 32.1367L125.584 32.043C125.706 31.9614 125.851 31.917 126 31.917Z" fill="#191919"/>
<path d="M168.667 29.2998C169.79 29.3 170.7 30.2103 170.7 31.333V40.667C170.7 41.7897 169.79 42.7 168.667 42.7002H159.333C158.21 42.7 157.3 41.7897 157.3 40.667V31.333C157.3 30.2103 158.21 29.3 159.333 29.2998H168.667ZM159.333 30.7002C158.983 30.7004 158.7 30.9835 158.7 31.333V40.667C158.7 41.0165 158.983 41.2996 159.333 41.2998H168.667C169.017 41.2996 169.3 41.0165 169.3 40.667V31.333C169.3 30.9835 169.017 30.7004 168.667 30.7002H159.333ZM163.505 32.8379C163.778 32.5647 164.222 32.5647 164.495 32.8379L167.162 35.5049C167.435 35.7782 167.435 36.2218 167.162 36.4951C166.889 36.7684 166.445 36.7683 166.172 36.4951L164.7 35.0234V38.667C164.7 39.0534 164.386 39.3662 164 39.3662C163.614 39.3662 163.3 39.0534 163.3 38.667V35.0234L161.828 36.4951C161.555 36.7683 161.111 36.7684 160.838 36.4951C160.565 36.2218 160.565 35.7782 160.838 35.5049L163.505 32.8379Z" fill="#191919"/>
<path d="M201.5 31C202.328 31 203 31.6716 203 32.5V39.5C203 40.3284 202.328 41 201.5 41H194.5C193.672 41 193 40.3284 193 39.5V32.5C193 31.6716 193.672 31 194.5 31H201.5ZM194.5 32C194.224 32 194 32.2239 194 32.5V39.5C194 39.7761 194.224 40 194.5 40H201.5C201.776 40 202 39.7761 202 39.5V32.5C202 32.2239 201.776 32 201.5 32H194.5ZM197.725 33.582C197.919 33.4539 198.183 33.4756 198.354 33.6465L200.354 35.6465C200.549 35.8417 200.549 36.1583 200.354 36.3535C200.158 36.5488 199.842 36.5488 199.646 36.3535L198.5 35.207V38C198.5 38.2761 198.276 38.5 198 38.5C197.724 38.5 197.5 38.2761 197.5 38V35.207L196.354 36.3535C196.158 36.5488 195.842 36.5488 195.646 36.3535C195.451 36.1583 195.451 35.8417 195.646 35.6465L197.646 33.6465L197.725 33.582Z" fill="#191919"/>
</svg>
